<svg width="756" height="128" viewBox="0 0 756 128" fill="none" xmlns="http://www.w3.org/2000/svg">
<path d="M18 110L64 18L110 110H18Z" stroke="#0BD9A5" stroke-width="10"/>
<circle cx="64" cy="18" r="18" fill="#526664"/>
<circle cx="18" cy="110" r="18" fill="#526664"/>
<circle cx="110" cy="110" r="18" fill="#526664"/>
<path d="M152 98.6135H162.102V72.0715H175.373C187.95 72.0715 197.26 63.3563 197.26 50.5805C197.26 37.7056 188.347 29.2875 175.373 29.2875H152V98.6135ZM162.102 62.9601V38.4979H174.779C182.206 38.4979 186.96 43.5488 186.96 50.5805C186.96 57.6121 182.206 62.9601 174.779 62.9601H162.102Z" fill="#526664"/>
<path d="M244.884 99.901C265.186 99.901 280.537 84.2531 280.537 63.9505C280.537 43.7469 265.285 28 244.983 28C224.68 28 209.329 43.5488 209.329 63.9505C209.329 84.4512 224.581 99.901 244.884 99.901ZM244.983 90.2944C230.622 90.2944 219.827 79.2022 219.827 63.9505C219.827 48.8968 230.622 37.6066 244.983 37.6066C259.244 37.6066 270.138 48.8968 270.138 63.9505C270.138 79.2022 259.244 90.2944 244.983 90.2944Z" fill="#526664"/>
<path d="M297.817 98.6135H337.035V89.403H307.918V29.2875H297.817V98.6135Z" fill="#526664"/>
<path d="M358.634 98.6135H368.637V68.2091L392.505 29.2875H380.62L363.784 58.4044H363.091L346.254 29.2875H334.766L358.634 68.2091V98.6135Z" fill="#526664"/>
<path d="M422.384 98.6135H432.386V38.597H452.095V29.2875H402.675V38.597H422.384V98.6135Z" fill="#526664"/>
<path d="M498.701 99.901C519.004 99.901 534.354 84.2531 534.354 63.9505C534.354 43.7469 519.103 28 498.8 28C478.498 28 463.147 43.5488 463.147 63.9505C463.147 84.4512 478.398 99.901 498.701 99.901ZM498.8 90.2944C484.44 90.2944 473.645 79.2022 473.645 63.9505C473.645 48.8968 484.44 37.6066 498.8 37.6066C513.062 37.6066 523.956 48.8968 523.956 63.9505C523.956 79.2022 513.062 90.2944 498.8 90.2944Z" fill="#526664"/>
<path d="M551.634 98.6135H561.439V38.8941H562.132L579.067 98.6135H593.527L610.363 38.8941H611.155V98.6135H620.861V29.2875H603.431L586.594 89.0069H585.901L569.065 29.2875H551.634V98.6135Z" fill="#526664"/>
<path d="M641.541 98.6135H671.748V89.6011H661.646V38.2999H671.748V29.2875H641.541V38.2999H651.643V89.6011H641.541V98.6135Z" fill="#526664"/>
<path d="M723.321 100C738.87 100 751.448 90.8886 755.904 76.5282H745.01C741.643 85.1444 733.126 90.3934 723.321 90.3934C708.862 90.3934 698.463 79.2022 698.463 63.9505C698.463 48.8968 708.862 37.6066 723.321 37.6066C733.225 37.6066 741.544 42.9546 745.01 51.3728H755.904C751.349 37.3095 738.969 28 723.321 28C702.919 28 687.965 43.6479 687.965 63.9505C687.965 84.4512 702.82 100 723.321 100Z" fill="#526664"/>
</svg>
